<svg width="24" height="25" viewBox="0 0 24 25" fill="none" xmlns="http://www.w3.org/2000/svg">
<path d="M8 15.1997V17.1997M12 11.1997V17.1997M16 7.19971V17.1997M7.8 21.1997H16.2C17.8802 21.1997 18.7202 21.1997 19.362 20.8727C19.9265 20.5851 20.3854 20.1262 20.673 19.5617C21 18.9199 21 18.0799 21 16.3997V7.99971C21 6.31955 21 5.47947 20.673 4.83774C20.3854 4.27325 19.9265 3.81431 19.362 3.52669C18.7202 3.19971 17.8802 3.19971 16.2 3.19971H7.8C6.11984 3.19971 5.27976 3.19971 4.63803 3.52669C4.07354 3.81431 3.6146 4.27325 3.32698 4.83774C3 5.47947 3 6.31955 3 7.99971V16.3997C3 18.0799 3 18.9199 3.32698 19.5617C3.6146 20.1262 4.07354 20.5851 4.63803 20.8727C5.27976 21.1997 6.11984 21.1997 7.8 21.1997Z" stroke="white" stroke-width="2" stroke-linecap="round" stroke-linejoin="round"/>
</svg>
