<svg width="24" height="25" viewBox="0 0 24 25" fill="none" xmlns="http://www.w3.org/2000/svg">
<path d="M8 17.4001H16M11.0177 3.16415L4.23539 8.43927C3.78202 8.79189 3.55534 8.9682 3.39203 9.189C3.24737 9.38459 3.1396 9.60493 3.07403 9.8392C3 10.1037 3 10.3908 3 10.9652V18.2001C3 19.3202 3 19.8803 3.21799 20.3081C3.40973 20.6844 3.71569 20.9904 4.09202 21.1821C4.51984 21.4001 5.07989 21.4001 6.2 21.4001H17.8C18.9201 21.4001 19.4802 21.4001 19.908 21.1821C20.2843 20.9904 20.5903 20.6844 20.782 20.3081C21 19.8803 21 19.3202 21 18.2001V10.9652C21 10.3908 21 10.1037 20.926 9.8392C20.8604 9.60493 20.7526 9.38459 20.608 9.189C20.4447 8.9682 20.218 8.79189 19.7646 8.43927L12.9823 3.16415C12.631 2.89089 12.4553 2.75427 12.2613 2.70175C12.0902 2.65541 11.9098 2.65541 11.7387 2.70175C11.5447 2.75427 11.369 2.89089 11.0177 3.16415Z" stroke="#D0D5DD" stroke-width="2" stroke-linecap="round" stroke-linejoin="round"/>
</svg>
