<svg width="24" height="25" viewBox="0 0 24 25" fill="none" xmlns="http://www.w3.org/2000/svg">
<path d="M2 12.7999L11.6422 17.621C11.7734 17.6866 11.839 17.7194 11.9078 17.7323C11.9687 17.7437 12.0313 17.7437 12.0922 17.7323C12.161 17.7194 12.2266 17.6866 12.3578 17.621L22 12.7999M2 17.7999L11.6422 22.621C11.7734 22.6866 11.839 22.7194 11.9078 22.7323C11.9687 22.7437 12.0313 22.7437 12.0922 22.7323C12.161 22.7194 12.2266 22.6866 12.3578 22.621L22 17.7999M2 7.79987L11.6422 2.97876C11.7734 2.91316 11.839 2.88037 11.9078 2.86746C11.9687 2.85603 12.0313 2.85603 12.0922 2.86746C12.161 2.88037 12.2266 2.91316 12.3578 2.97876L22 7.79987L12.3578 12.621C12.2266 12.6866 12.161 12.7194 12.0922 12.7323C12.0313 12.7437 11.9687 12.7437 11.9078 12.7323C11.839 12.7194 11.7734 12.6866 11.6422 12.621L2 7.79987Z" stroke="#D0D5DD" stroke-width="2" stroke-linecap="round" stroke-linejoin="round"/>
</svg>
