<svg width="25" height="24" viewBox="0 0 25 24" fill="none" xmlns="http://www.w3.org/2000/svg">
<path d="M9.5 12.0005H15.5" stroke="#A1A5B3" stroke-width="1.5" stroke-linecap="round" stroke-linejoin="round"/>
<path d="M9.5 15.0005H15.5" stroke="#A1A5B3" stroke-width="1.5" stroke-linecap="round" stroke-linejoin="round"/>
<path d="M5.75 3.75049H19.25C19.4489 3.75049 19.6397 3.82951 19.7803 3.97016C19.921 4.11081 20 4.30158 20 4.50049V18.7505C20 19.3472 19.7629 19.9195 19.341 20.3415C18.919 20.7634 18.3467 21.0005 17.75 21.0005H7.25C6.65326 21.0005 6.08097 20.7634 5.65901 20.3415C5.23705 19.9195 5 19.3472 5 18.7505V4.50049C5 4.30158 5.07902 4.11081 5.21967 3.97016C5.36032 3.82951 5.55109 3.75049 5.75 3.75049Z" stroke="#A1A5B3" stroke-width="1.5" stroke-linecap="round" stroke-linejoin="round"/>
<path d="M8 2.25049V5.25049" stroke="#A1A5B3" stroke-width="1.5" stroke-linecap="round" stroke-linejoin="round"/>
<path d="M12.5 2.25049V5.25049" stroke="#A1A5B3" stroke-width="1.5" stroke-linecap="round" stroke-linejoin="round"/>
<path d="M17 2.25049V5.25049" stroke="#A1A5B3" stroke-width="1.5" stroke-linecap="round" stroke-linejoin="round"/>
</svg>
