<svg width="320" height="72" viewBox="0 0 320 72" fill="none" xmlns="http://www.w3.org/2000/svg">
<mask id="path-1-inside-1_717_3966" fill="white">
<path d="M0 0H320V72H0V0Z"/>
</mask>
<path d="M0 0H320V72H0V0Z" fill="#F9FAFB"/>
<path d="M320 71H0V73H320V71Z" fill="#EAECF0" mask="url(#path-1-inside-1_717_3966)"/>
<rect x="24" y="16" width="40" height="40" rx="20" fill="#F4EBFF"/>
<path d="M45.6667 27.8912V31.3333C45.6667 31.8 45.6667 32.0334 45.7575 32.2116C45.8374 32.3684 45.9649 32.4959 46.1217 32.5758C46.3 32.6666 46.5333 32.6666 47 32.6666H50.4422M50.6667 34.3235V40.3333C50.6667 41.7334 50.6667 42.4335 50.3942 42.9683C50.1545 43.4387 49.7721 43.8211 49.3017 44.0608C48.7669 44.3333 48.0668 44.3333 46.6667 44.3333H41.3334C39.9332 44.3333 39.2332 44.3333 38.6984 44.0608C38.228 43.8211 37.8455 43.4387 37.6059 42.9683C37.3334 42.4335 37.3334 41.7334 37.3334 40.3333V31.6666C37.3334 30.2665 37.3334 29.5664 37.6059 29.0316C37.8455 28.5612 38.228 28.1788 38.6984 27.9391C39.2332 27.6666 39.9332 27.6666 41.3334 27.6666H44.0099C44.6213 27.6666 44.9271 27.6666 45.2148 27.7357C45.4699 27.7969 45.7137 27.898 45.9374 28.035C46.1897 28.1896 46.4059 28.4058 46.8383 28.8382L49.4951 31.4951C49.9275 31.9274 50.1437 32.1436 50.2983 32.3959C50.4354 32.6196 50.5364 32.8635 50.5976 33.1185C50.6667 33.4063 50.6667 33.712 50.6667 34.3235Z" stroke="#7F56D9" stroke-width="1.66667" stroke-linecap="round" stroke-linejoin="round"/>
<path d="M78.6548 20.8182V31H77.1186V20.8182H78.6548ZM82.2592 26.4659V31H80.7727V23.3636H82.1996V24.6065H82.294C82.4697 24.2022 82.7448 23.8774 83.1193 23.6321C83.4972 23.3868 83.9728 23.2642 84.5462 23.2642C85.0665 23.2642 85.5223 23.3736 85.9134 23.5923C86.3045 23.8078 86.6077 24.1293 86.8232 24.5568C87.0386 24.9844 87.1463 25.513 87.1463 26.1428V31H85.6598V26.3217C85.6598 25.7682 85.5156 25.3357 85.2273 25.0241C84.9389 24.7093 84.5429 24.5518 84.0391 24.5518C83.6944 24.5518 83.3878 24.6264 83.1193 24.7756C82.8542 24.9247 82.6437 25.1435 82.4879 25.4318C82.3355 25.7169 82.2592 26.0616 82.2592 26.4659ZM92.7045 23.3636V24.5568H88.5334V23.3636H92.7045ZM89.652 21.5341H91.1385V28.7578C91.1385 29.0462 91.1816 29.2633 91.2678 29.4091C91.3539 29.5516 91.465 29.6494 91.6009 29.7024C91.7401 29.7521 91.8909 29.777 92.0533 29.777C92.1726 29.777 92.277 29.7687 92.3665 29.7521C92.456 29.7356 92.5256 29.7223 92.5753 29.7124L92.8438 30.9403C92.7576 30.9735 92.6349 31.0066 92.4759 31.0398C92.3168 31.0762 92.1179 31.0961 91.8793 31.0994C91.4882 31.1061 91.1236 31.0365 90.7855 30.8906C90.4474 30.7448 90.174 30.5194 89.9652 30.2145C89.7564 29.9096 89.652 29.5268 89.652 29.0661V21.5341ZM94.3489 31V23.3636H95.7857V24.5767H95.8652C96.0044 24.1657 96.2497 23.8426 96.601 23.6072C96.9557 23.3686 97.3567 23.2493 97.8042 23.2493C97.897 23.2493 98.0063 23.2526 98.1323 23.2592C98.2615 23.2659 98.3626 23.2741 98.4355 23.2841V24.706C98.3759 24.6894 98.2698 24.6712 98.1174 24.6513C97.9649 24.6281 97.8124 24.6165 97.66 24.6165C97.3087 24.6165 96.9954 24.6911 96.7203 24.8402C96.4486 24.986 96.2331 25.1899 96.074 25.4517C95.915 25.7102 95.8354 26.0052 95.8354 26.3366V31H94.3489ZM102.665 31.1541C101.949 31.1541 101.324 30.9901 100.791 30.6619C100.257 30.3338 99.8429 29.8748 99.5479 29.2848C99.253 28.6948 99.1055 28.0054 99.1055 27.2166C99.1055 26.4245 99.253 25.7318 99.5479 25.1385C99.8429 24.5452 100.257 24.0845 100.791 23.7564C101.324 23.4283 101.949 23.2642 102.665 23.2642C103.381 23.2642 104.006 23.4283 104.539 23.7564C105.073 24.0845 105.487 24.5452 105.782 25.1385C106.077 25.7318 106.225 26.4245 106.225 27.2166C106.225 28.0054 106.077 28.6948 105.782 29.2848C105.487 29.8748 105.073 30.3338 104.539 30.6619C104.006 30.9901 103.381 31.1541 102.665 31.1541ZM102.67 29.9062C103.134 29.9062 103.519 29.7836 103.824 29.5384C104.128 29.2931 104.354 28.9666 104.5 28.5589C104.649 28.1513 104.723 27.7022 104.723 27.2116C104.723 26.7244 104.649 26.277 104.5 25.8693C104.354 25.4583 104.128 25.1286 103.824 24.88C103.519 24.6314 103.134 24.5071 102.67 24.5071C102.203 24.5071 101.815 24.6314 101.507 24.88C101.202 25.1286 100.975 25.4583 100.826 25.8693C100.68 26.277 100.607 26.7244 100.607 27.2116C100.607 27.7022 100.68 28.1513 100.826 28.5589C100.975 28.9666 101.202 29.2931 101.507 29.5384C101.815 29.7836 102.203 29.9062 102.67 29.9062ZM110.743 31.1491C110.126 31.1491 109.576 30.9917 109.092 30.6768C108.612 30.3587 108.234 29.9062 107.959 29.3196C107.687 28.7296 107.551 28.022 107.551 27.1967C107.551 26.3714 107.689 25.6655 107.964 25.0788C108.242 24.4922 108.623 24.0431 109.107 23.7315C109.591 23.42 110.14 23.2642 110.753 23.2642C111.227 23.2642 111.608 23.3438 111.896 23.5028C112.188 23.6586 112.413 23.8409 112.572 24.0497C112.735 24.2585 112.861 24.4425 112.95 24.6016H113.04V20.8182H114.526V31H113.074V29.8118H112.95C112.861 29.9742 112.731 30.1598 112.562 30.3686C112.397 30.5774 112.168 30.7597 111.876 30.9155C111.585 31.0713 111.207 31.1491 110.743 31.1491ZM111.071 29.8814C111.498 29.8814 111.86 29.7687 112.155 29.5433C112.453 29.3146 112.678 28.9981 112.831 28.5938C112.987 28.1894 113.064 27.7187 113.064 27.1818C113.064 26.6515 112.988 26.1875 112.836 25.7898C112.683 25.392 112.46 25.0821 112.165 24.8601C111.87 24.638 111.505 24.527 111.071 24.527C110.623 24.527 110.251 24.643 109.952 24.875C109.654 25.107 109.429 25.4235 109.276 25.8246C109.127 26.2256 109.052 26.678 109.052 27.1818C109.052 27.6922 109.129 28.1513 109.281 28.5589C109.434 28.9666 109.659 29.2898 109.957 29.5284C110.259 29.7637 110.63 29.8814 111.071 29.8814ZM121.485 27.8331V23.3636H122.977V31H121.515V29.6776H121.435C121.26 30.0852 120.978 30.425 120.59 30.6967C120.206 30.9652 119.727 31.0994 119.153 31.0994C118.663 31.0994 118.229 30.9917 117.851 30.7763C117.476 30.5575 117.181 30.2344 116.966 29.8068C116.754 29.3793 116.648 28.8506 116.648 28.2209V23.3636H118.134V28.0419C118.134 28.5623 118.278 28.9766 118.567 29.2848C118.855 29.593 119.23 29.7472 119.69 29.7472C119.969 29.7472 120.246 29.6776 120.521 29.5384C120.799 29.3991 121.029 29.1887 121.212 28.907C121.397 28.6252 121.488 28.2673 121.485 27.8331ZM128.191 31.1541C127.451 31.1541 126.815 30.9867 126.281 30.652C125.751 30.3139 125.343 29.8482 125.058 29.255C124.773 28.6617 124.631 27.9822 124.631 27.2166C124.631 26.4411 124.777 25.7566 125.068 25.1634C125.36 24.5668 125.771 24.1011 126.301 23.7663C126.832 23.4316 127.456 23.2642 128.176 23.2642C128.756 23.2642 129.273 23.3719 129.727 23.5874C130.181 23.7995 130.547 24.0978 130.825 24.4822C131.107 24.8667 131.275 25.3158 131.328 25.8295H129.881C129.801 25.4716 129.619 25.1634 129.334 24.9048C129.052 24.6463 128.674 24.517 128.2 24.517C127.786 24.517 127.423 24.6264 127.112 24.8452C126.803 25.0606 126.563 25.3688 126.391 25.7699C126.218 26.1676 126.132 26.6383 126.132 27.1818C126.132 27.7386 126.217 28.2192 126.386 28.6236C126.555 29.0279 126.794 29.3411 127.102 29.5632C127.413 29.7853 127.78 29.8963 128.2 29.8963C128.482 29.8963 128.737 29.8449 128.966 29.7422C129.198 29.6361 129.392 29.4853 129.548 29.2898C129.707 29.0942 129.818 28.8589 129.881 28.5838H131.328C131.275 29.0777 131.114 29.5185 130.845 29.9062C130.577 30.294 130.217 30.599 129.767 30.821C129.319 31.0431 128.794 31.1541 128.191 31.1541ZM136.482 23.3636V24.5568H132.311V23.3636H136.482ZM133.429 21.5341H134.916V28.7578C134.916 29.0462 134.959 29.2633 135.045 29.4091C135.131 29.5516 135.242 29.6494 135.378 29.7024C135.517 29.7521 135.668 29.777 135.831 29.777C135.95 29.777 136.054 29.7687 136.144 29.7521C136.233 29.7356 136.303 29.7223 136.353 29.7124L136.621 30.9403C136.535 30.9735 136.412 31.0066 136.253 31.0398C136.094 31.0762 135.895 31.0961 135.657 31.0994C135.266 31.1061 134.901 31.0365 134.563 30.8906C134.225 30.7448 133.951 30.5194 133.743 30.2145C133.534 29.9096 133.429 29.5268 133.429 29.0661V21.5341ZM138.126 31V23.3636H139.613V31H138.126ZM138.877 22.1854C138.618 22.1854 138.396 22.0992 138.211 21.9268C138.028 21.7512 137.937 21.5424 137.937 21.3004C137.937 21.0552 138.028 20.8464 138.211 20.674C138.396 20.4983 138.618 20.4105 138.877 20.4105C139.135 20.4105 139.356 20.4983 139.538 20.674C139.724 20.8464 139.817 21.0552 139.817 21.3004C139.817 21.5424 139.724 21.7512 139.538 21.9268C139.356 22.0992 139.135 22.1854 138.877 22.1854ZM144.829 31.1541C144.113 31.1541 143.489 30.9901 142.955 30.6619C142.421 30.3338 142.007 29.8748 141.712 29.2848C141.417 28.6948 141.27 28.0054 141.27 27.2166C141.27 26.4245 141.417 25.7318 141.712 25.1385C142.007 24.5452 142.421 24.0845 142.955 23.7564C143.489 23.4283 144.113 23.2642 144.829 23.2642C145.545 23.2642 146.17 23.4283 146.703 23.7564C147.237 24.0845 147.651 24.5452 147.946 25.1385C148.241 25.7318 148.389 26.4245 148.389 27.2166C148.389 28.0054 148.241 28.6948 147.946 29.2848C147.651 29.8748 147.237 30.3338 146.703 30.6619C146.17 30.9901 145.545 31.1541 144.829 31.1541ZM144.834 29.9062C145.298 29.9062 145.683 29.7836 145.988 29.5384C146.292 29.2931 146.518 28.9666 146.664 28.5589C146.813 28.1513 146.887 27.7022 146.887 27.2116C146.887 26.7244 146.813 26.277 146.664 25.8693C146.518 25.4583 146.292 25.1286 145.988 24.88C145.683 24.6314 145.298 24.5071 144.834 24.5071C144.367 24.5071 143.979 24.6314 143.671 24.88C143.366 25.1286 143.139 25.4583 142.99 25.8693C142.844 26.277 142.771 26.7244 142.771 27.2116C142.771 27.7022 142.844 28.1513 142.99 28.5589C143.139 28.9666 143.366 29.2931 143.671 29.5384C143.979 29.7836 144.367 29.9062 144.834 29.9062ZM151.535 26.4659V31H150.048V23.3636H151.475V24.6065H151.569C151.745 24.2022 152.02 23.8774 152.395 23.6321C152.773 23.3868 153.248 23.2642 153.822 23.2642C154.342 23.2642 154.798 23.3736 155.189 23.5923C155.58 23.8078 155.883 24.1293 156.099 24.5568C156.314 24.9844 156.422 25.513 156.422 26.1428V31H154.935V26.3217C154.935 25.7682 154.791 25.3357 154.503 25.0241C154.214 24.7093 153.818 24.5518 153.314 24.5518C152.97 24.5518 152.663 24.6264 152.395 24.7756C152.13 24.9247 151.919 25.1435 151.763 25.4318C151.611 25.7169 151.535 26.0616 151.535 26.4659ZM165.685 23.3636V24.5568H161.514V23.3636H165.685ZM162.632 21.5341H164.119V28.7578C164.119 29.0462 164.162 29.2633 164.248 29.4091C164.334 29.5516 164.445 29.6494 164.581 29.7024C164.721 29.7521 164.871 29.777 165.034 29.777C165.153 29.777 165.257 29.7687 165.347 29.7521C165.436 29.7356 165.506 29.7223 165.556 29.7124L165.824 30.9403C165.738 30.9735 165.615 31.0066 165.456 31.0398C165.297 31.0762 165.098 31.0961 164.86 31.0994C164.469 31.1061 164.104 31.0365 163.766 30.8906C163.428 30.7448 163.154 30.5194 162.946 30.2145C162.737 29.9096 162.632 29.5268 162.632 29.0661V21.5341ZM170.464 31.1541C169.748 31.1541 169.123 30.9901 168.59 30.6619C168.056 30.3338 167.642 29.8748 167.347 29.2848C167.052 28.6948 166.904 28.0054 166.904 27.2166C166.904 26.4245 167.052 25.7318 167.347 25.1385C167.642 24.5452 168.056 24.0845 168.59 23.7564C169.123 23.4283 169.748 23.2642 170.464 23.2642C171.18 23.2642 171.805 23.4283 172.338 23.7564C172.872 24.0845 173.286 24.5452 173.581 25.1385C173.876 25.7318 174.024 26.4245 174.024 27.2166C174.024 28.0054 173.876 28.6948 173.581 29.2848C173.286 29.8748 172.872 30.3338 172.338 30.6619C171.805 30.9901 171.18 31.1541 170.464 31.1541ZM170.469 29.9062C170.933 29.9062 171.317 29.7836 171.622 29.5384C171.927 29.2931 172.153 28.9666 172.298 28.5589C172.448 28.1513 172.522 27.7022 172.522 27.2116C172.522 26.7244 172.448 26.277 172.298 25.8693C172.153 25.4583 171.927 25.1286 171.622 24.88C171.317 24.6314 170.933 24.5071 170.469 24.5071C170.002 24.5071 169.614 24.6314 169.306 24.88C169.001 25.1286 168.774 25.4583 168.624 25.8693C168.479 26.277 168.406 26.7244 168.406 27.2116C168.406 27.7022 168.479 28.1513 168.624 28.5589C168.774 28.9666 169.001 29.2931 169.306 29.5384C169.614 29.7836 170.002 29.9062 170.469 29.9062ZM179.507 31V20.8182H183.137C183.929 20.8182 184.585 20.9624 185.105 21.2507C185.626 21.5391 186.015 21.9335 186.274 22.4339C186.532 22.9311 186.661 23.4912 186.661 24.1143C186.661 24.7408 186.53 25.3042 186.269 25.8047C186.01 26.3018 185.619 26.6963 185.095 26.9879C184.575 27.2763 183.92 27.4205 183.132 27.4205H180.636V26.1179H182.992C183.493 26.1179 183.899 26.0317 184.21 25.8594C184.522 25.6837 184.751 25.4451 184.896 25.1435C185.042 24.8419 185.115 24.4988 185.115 24.1143C185.115 23.7299 185.042 23.3885 184.896 23.0902C184.751 22.7919 184.52 22.5582 184.205 22.3892C183.894 22.2202 183.483 22.1357 182.972 22.1357H181.044V31H179.507ZM188.343 31V23.3636H189.78V24.5767H189.859C189.999 24.1657 190.244 23.8426 190.595 23.6072C190.95 23.3686 191.351 23.2493 191.798 23.2493C191.891 23.2493 192 23.2526 192.126 23.2592C192.256 23.2659 192.357 23.2741 192.43 23.2841V24.706C192.37 24.6894 192.264 24.6712 192.112 24.6513C191.959 24.6281 191.807 24.6165 191.654 24.6165C191.303 24.6165 190.99 24.6911 190.714 24.8402C190.443 24.986 190.227 25.1899 190.068 25.4517C189.909 25.7102 189.83 26.0052 189.83 26.3366V31H188.343ZM196.659 31.1541C195.943 31.1541 195.319 30.9901 194.785 30.6619C194.251 30.3338 193.837 29.8748 193.542 29.2848C193.247 28.6948 193.1 28.0054 193.1 27.2166C193.1 26.4245 193.247 25.7318 193.542 25.1385C193.837 24.5452 194.251 24.0845 194.785 23.7564C195.319 23.4283 195.943 23.2642 196.659 23.2642C197.375 23.2642 198 23.4283 198.534 23.7564C199.067 24.0845 199.481 24.5452 199.776 25.1385C200.071 25.7318 200.219 26.4245 200.219 27.2166C200.219 28.0054 200.071 28.6948 199.776 29.2848C199.481 29.8748 199.067 30.3338 198.534 30.6619C198 30.9901 197.375 31.1541 196.659 31.1541ZM196.664 29.9062C197.128 29.9062 197.513 29.7836 197.818 29.5384C198.123 29.2931 198.348 28.9666 198.494 28.5589C198.643 28.1513 198.718 27.7022 198.718 27.2116C198.718 26.7244 198.643 26.277 198.494 25.8693C198.348 25.4583 198.123 25.1286 197.818 24.88C197.513 24.6314 197.128 24.5071 196.664 24.5071C196.197 24.5071 195.809 24.6314 195.501 24.88C195.196 25.1286 194.969 25.4583 194.82 25.8693C194.674 26.277 194.601 26.7244 194.601 27.2116C194.601 27.7022 194.674 28.1513 194.82 28.5589C194.969 28.9666 195.196 29.2931 195.501 29.5384C195.809 29.7836 196.197 29.9062 196.664 29.9062ZM204.737 31.1491C204.12 31.1491 203.57 30.9917 203.086 30.6768C202.606 30.3587 202.228 29.9062 201.953 29.3196C201.681 28.7296 201.545 28.022 201.545 27.1967C201.545 26.3714 201.683 25.6655 201.958 25.0788C202.236 24.4922 202.617 24.0431 203.101 23.7315C203.585 23.42 204.134 23.2642 204.747 23.2642C205.221 23.2642 205.602 23.3438 205.89 23.5028C206.182 23.6586 206.407 23.8409 206.566 24.0497C206.729 24.2585 206.855 24.4425 206.944 24.6016H207.034V20.8182H208.52V31H207.069V29.8118H206.944C206.855 29.9742 206.725 30.1598 206.556 30.3686C206.391 30.5774 206.162 30.7597 205.87 30.9155C205.579 31.0713 205.201 31.1491 204.737 31.1491ZM205.065 29.8814C205.493 29.8814 205.854 29.7687 206.149 29.5433C206.447 29.3146 206.672 28.9981 206.825 28.5938C206.981 28.1894 207.059 27.7187 207.059 27.1818C207.059 26.6515 206.982 26.1875 206.83 25.7898C206.677 25.392 206.454 25.0821 206.159 24.8601C205.864 24.638 205.499 24.527 205.065 24.527C204.618 24.527 204.245 24.643 203.946 24.875C203.648 25.107 203.423 25.4235 203.27 25.8246C203.121 26.2256 203.047 26.678 203.047 27.1818C203.047 27.6922 203.123 28.1513 203.275 28.5589C203.428 28.9666 203.653 29.2898 203.951 29.5284C204.253 29.7637 204.624 29.8814 205.065 29.8814ZM215.479 27.8331V23.3636H216.971V31H215.509V29.6776H215.43C215.254 30.0852 214.972 30.425 214.584 30.6967C214.2 30.9652 213.721 31.0994 213.148 31.0994C212.657 31.0994 212.223 30.9917 211.845 30.7763C211.47 30.5575 211.175 30.2344 210.96 29.8068C210.748 29.3793 210.642 28.8506 210.642 28.2209V23.3636H212.128V28.0419C212.128 28.5623 212.273 28.9766 212.561 29.2848C212.849 29.593 213.224 29.7472 213.684 29.7472C213.963 29.7472 214.24 29.6776 214.515 29.5384C214.793 29.3991 215.023 29.1887 215.206 28.907C215.391 28.6252 215.483 28.2673 215.479 27.8331ZM222.185 31.1541C221.446 31.1541 220.809 30.9867 220.276 30.652C219.745 30.3139 219.338 29.8482 219.053 29.255C218.768 28.6617 218.625 27.9822 218.625 27.2166C218.625 26.4411 218.771 25.7566 219.062 25.1634C219.354 24.5668 219.765 24.1011 220.295 23.7663C220.826 23.4316 221.451 23.2642 222.17 23.2642C222.75 23.2642 223.267 23.3719 223.721 23.5874C224.175 23.7995 224.541 24.0978 224.82 24.4822C225.101 24.8667 225.269 25.3158 225.322 25.8295H223.875C223.795 25.4716 223.613 25.1634 223.328 24.9048C223.046 24.6463 222.669 24.517 222.195 24.517C221.78 24.517 221.417 24.6264 221.106 24.8452C220.798 25.0606 220.557 25.3688 220.385 25.7699C220.213 26.1676 220.126 26.6383 220.126 27.1818C220.126 27.7386 220.211 28.2192 220.38 28.6236C220.549 29.0279 220.788 29.3411 221.096 29.5632C221.407 29.7853 221.774 29.8963 222.195 29.8963C222.476 29.8963 222.732 29.8449 222.96 29.7422C223.192 29.6361 223.386 29.4853 223.542 29.2898C223.701 29.0942 223.812 28.8589 223.875 28.5838H225.322C225.269 29.0777 225.108 29.5185 224.839 29.9062C224.571 30.294 224.211 30.599 223.761 30.821C223.313 31.0431 222.788 31.1541 222.185 31.1541ZM230.476 23.3636V24.5568H226.305V23.3636H230.476ZM227.423 21.5341H228.91V28.7578C228.91 29.0462 228.953 29.2633 229.039 29.4091C229.125 29.5516 229.236 29.6494 229.372 29.7024C229.512 29.7521 229.662 29.777 229.825 29.777C229.944 29.777 230.048 29.7687 230.138 29.7521C230.227 29.7356 230.297 29.7223 230.347 29.7124L230.615 30.9403C230.529 30.9735 230.406 31.0066 230.247 31.0398C230.088 31.0762 229.889 31.0961 229.651 31.0994C229.26 31.1061 228.895 31.0365 228.557 30.8906C228.219 30.7448 227.945 30.5194 227.737 30.2145C227.528 29.9096 227.423 29.5268 227.423 29.0661V21.5341ZM238.684 31.1491C238.068 31.1491 237.517 30.9917 237.034 30.6768C236.553 30.3587 236.175 29.9062 235.9 29.3196C235.628 28.7296 235.492 28.022 235.492 27.1967C235.492 26.3714 235.63 25.6655 235.905 25.0788C236.183 24.4922 236.565 24.0431 237.048 23.7315C237.532 23.42 238.081 23.2642 238.694 23.2642C239.168 23.2642 239.549 23.3438 239.838 23.5028C240.129 23.6586 240.355 23.8409 240.514 24.0497C240.676 24.2585 240.802 24.4425 240.892 24.6016H240.981V20.8182H242.468V31H241.016V29.8118H240.892C240.802 29.9742 240.673 30.1598 240.504 30.3686C240.338 30.5774 240.109 30.7597 239.818 30.9155C239.526 31.0713 239.148 31.1491 238.684 31.1491ZM239.012 29.8814C239.44 29.8814 239.801 29.7687 240.096 29.5433C240.394 29.3146 240.62 28.9981 240.772 28.5938C240.928 28.1894 241.006 27.7187 241.006 27.1818C241.006 26.6515 240.93 26.1875 240.777 25.7898C240.625 25.392 240.401 25.0821 240.106 24.8601C239.811 24.638 239.446 24.527 239.012 24.527C238.565 24.527 238.192 24.643 237.894 24.875C237.595 25.107 237.37 25.4235 237.218 25.8246C237.068 26.2256 236.994 26.678 236.994 27.1818C236.994 27.6922 237.07 28.1513 237.222 28.5589C237.375 28.9666 237.6 29.2898 237.899 29.5284C238.2 29.7637 238.571 29.8814 239.012 29.8814ZM247.88 31.1541C247.128 31.1541 246.48 30.9934 245.936 30.6719C245.396 30.3471 244.979 29.8913 244.684 29.3047C244.392 28.7147 244.246 28.0237 244.246 27.2315C244.246 26.4493 244.392 25.7599 244.684 25.1634C244.979 24.5668 245.39 24.1011 245.917 23.7663C246.447 23.4316 247.067 23.2642 247.776 23.2642C248.207 23.2642 248.624 23.3355 249.029 23.478C249.433 23.6205 249.796 23.8442 250.118 24.1491C250.439 24.4541 250.693 24.8501 250.878 25.3374C251.064 25.8213 251.157 26.4096 251.157 27.1023V27.6293H245.086V26.5156H249.7C249.7 26.1245 249.62 25.7782 249.461 25.4766C249.302 25.1716 249.078 24.9313 248.79 24.7557C248.505 24.58 248.17 24.4922 247.786 24.4922C247.368 24.4922 247.004 24.5949 246.692 24.8004C246.384 25.0026 246.145 25.2678 245.976 25.5959C245.81 25.9207 245.728 26.2737 245.728 26.6548V27.5249C245.728 28.0353 245.817 28.4695 245.996 28.8274C246.178 29.1854 246.432 29.4588 246.757 29.6477C247.082 29.8333 247.461 29.9261 247.895 29.9261C248.177 29.9261 248.434 29.8864 248.666 29.8068C248.898 29.724 249.098 29.6013 249.267 29.4389C249.436 29.2765 249.566 29.076 249.655 28.8374L251.062 29.0909C250.949 29.5052 250.747 29.8681 250.456 30.1797C250.167 30.4879 249.804 30.7282 249.367 30.9006C248.933 31.0696 248.437 31.1541 247.88 31.1541ZM258.528 25.228L257.181 25.4666C257.125 25.2943 257.035 25.1302 256.912 24.9744C256.793 24.8187 256.631 24.6911 256.425 24.5916C256.22 24.4922 255.963 24.4425 255.655 24.4425C255.234 24.4425 254.882 24.5369 254.601 24.7259C254.319 24.9115 254.178 25.1518 254.178 25.4467C254.178 25.7019 254.273 25.9074 254.461 26.0632C254.65 26.219 254.955 26.3466 255.376 26.446L256.589 26.7244C257.292 26.8868 257.816 27.1371 258.16 27.4751C258.505 27.8132 258.677 28.2524 258.677 28.7926C258.677 29.25 258.545 29.6577 258.28 30.0156C258.018 30.3703 257.652 30.6487 257.181 30.8509C256.714 31.053 256.172 31.1541 255.555 31.1541C254.7 31.1541 254.002 30.9718 253.462 30.6072C252.922 30.2393 252.59 29.7173 252.468 29.0412L253.905 28.8224C253.994 29.197 254.178 29.4804 254.456 29.6726C254.735 29.8615 255.098 29.956 255.545 29.956C256.032 29.956 256.422 29.8549 256.714 29.6527C257.005 29.4472 257.151 29.197 257.151 28.902C257.151 28.6634 257.062 28.4628 256.883 28.3004C256.707 28.138 256.437 28.0154 256.072 27.9325L254.78 27.6491C254.067 27.4867 253.54 27.2282 253.199 26.8736C252.861 26.5189 252.692 26.0698 252.692 25.5263C252.692 25.0755 252.818 24.6811 253.069 24.343C253.321 24.005 253.669 23.7415 254.113 23.5526C254.558 23.3603 255.066 23.2642 255.64 23.2642C256.465 23.2642 257.115 23.4432 257.589 23.8011C258.063 24.1558 258.376 24.6314 258.528 25.228ZM260.312 31V23.3636H261.798V31H260.312ZM261.062 22.1854C260.804 22.1854 260.582 22.0992 260.396 21.9268C260.214 21.7512 260.123 21.5424 260.123 21.3004C260.123 21.0552 260.214 20.8464 260.396 20.674C260.582 20.4983 260.804 20.4105 261.062 20.4105C261.321 20.4105 261.541 20.4983 261.724 20.674C261.909 20.8464 262.002 21.0552 262.002 21.3004C262.002 21.5424 261.909 21.7512 261.724 21.9268C261.541 22.0992 261.321 22.1854 261.062 22.1854ZM267 34.0227C266.393 34.0227 265.871 33.9432 265.434 33.7841C265 33.625 264.645 33.4145 264.37 33.1527C264.095 32.8909 263.889 32.6042 263.753 32.2926L265.031 31.7656C265.121 31.9115 265.24 32.0656 265.389 32.228C265.541 32.3937 265.747 32.5346 266.006 32.6506C266.267 32.7666 266.604 32.8246 267.015 32.8246C267.578 32.8246 268.044 32.687 268.412 32.4119C268.78 32.1402 268.964 31.706 268.964 31.1094V29.608H268.869C268.78 29.7704 268.65 29.951 268.481 30.1499C268.316 30.3487 268.087 30.5211 267.795 30.6669C267.504 30.8127 267.124 30.8857 266.657 30.8857C266.054 30.8857 265.51 30.7448 265.026 30.4631C264.546 30.178 264.164 29.7588 263.883 29.2053C263.604 28.6484 263.465 27.964 263.465 27.152C263.465 26.34 263.603 25.6439 263.878 25.0639C264.156 24.4839 264.537 24.0398 265.021 23.7315C265.505 23.42 266.054 23.2642 266.667 23.2642C267.141 23.2642 267.523 23.3438 267.815 23.5028C268.107 23.6586 268.334 23.8409 268.496 24.0497C268.662 24.2585 268.79 24.4425 268.879 24.6016H268.988V23.3636H270.445V31.169C270.445 31.8253 270.293 32.3639 269.988 32.7848C269.683 33.2057 269.27 33.5173 268.75 33.7195C268.233 33.9216 267.649 34.0227 267 34.0227ZM266.985 29.6527C267.412 29.6527 267.774 29.5533 268.069 29.3544C268.367 29.1522 268.592 28.8639 268.745 28.4893C268.901 28.1115 268.979 27.6591 268.979 27.1321C268.979 26.6184 268.902 26.166 268.75 25.7749C268.597 25.3838 268.374 25.0788 268.079 24.8601C267.784 24.638 267.419 24.527 266.985 24.527C266.537 24.527 266.165 24.643 265.866 24.875C265.568 25.1037 265.343 25.4152 265.19 25.8097C265.041 26.2041 264.966 26.6449 264.966 27.1321C264.966 27.6326 265.043 28.0717 265.195 28.4496C265.348 28.8274 265.573 29.1224 265.871 29.3345C266.173 29.5466 266.544 29.6527 266.985 29.6527ZM273.925 26.4659V31H272.439V23.3636H273.866V24.6065H273.96C274.136 24.2022 274.411 23.8774 274.785 23.6321C275.163 23.3868 275.639 23.2642 276.212 23.2642C276.733 23.2642 277.188 23.3736 277.579 23.5923C277.97 23.8078 278.274 24.1293 278.489 24.5568C278.705 24.9844 278.812 25.513 278.812 26.1428V31H277.326V26.3217C277.326 25.7682 277.182 25.3357 276.893 25.0241C276.605 24.7093 276.209 24.5518 275.705 24.5518C275.36 24.5518 275.054 24.6264 274.785 24.7756C274.52 24.9247 274.31 25.1435 274.154 25.4318C274.001 25.7169 273.925 26.0616 273.925 26.4659ZM285.49 31.0945C285.219 31.0945 284.985 30.9983 284.789 30.8061C284.594 30.6106 284.496 30.3752 284.496 30.1001C284.496 29.8284 284.594 29.5964 284.789 29.4041C284.985 29.2086 285.219 29.1108 285.49 29.1108C285.762 29.1108 285.996 29.2086 286.191 29.4041C286.387 29.5964 286.485 29.8284 286.485 30.1001C286.485 30.2824 286.438 30.4498 286.346 30.6023C286.256 30.7514 286.137 30.8707 285.988 30.9602C285.838 31.0497 285.673 31.0945 285.49 31.0945ZM288.476 33.8636V23.3636H289.928V24.6016H290.052C290.138 24.4425 290.262 24.2585 290.425 24.0497C290.587 23.8409 290.813 23.6586 291.101 23.5028C291.389 23.3438 291.77 23.2642 292.244 23.2642C292.861 23.2642 293.411 23.42 293.895 23.7315C294.379 24.0431 294.758 24.4922 295.033 25.0788C295.312 25.6655 295.451 26.3714 295.451 27.1967C295.451 28.022 295.313 28.7296 295.038 29.3196C294.763 29.9062 294.385 30.3587 293.905 30.6768C293.424 30.9917 292.876 31.1491 292.259 31.1491C291.795 31.1491 291.416 31.0713 291.121 30.9155C290.829 30.7597 290.6 30.5774 290.435 30.3686C290.269 30.1598 290.141 29.9742 290.052 29.8118H289.962V33.8636H288.476ZM289.933 27.1818C289.933 27.7187 290.01 28.1894 290.166 28.5938C290.322 28.9981 290.547 29.3146 290.842 29.5433C291.137 29.7687 291.499 29.8814 291.926 29.8814C292.37 29.8814 292.741 29.7637 293.04 29.5284C293.338 29.2898 293.563 28.9666 293.716 28.5589C293.872 28.1513 293.95 27.6922 293.95 27.1818C293.95 26.678 293.873 26.2256 293.721 25.8246C293.572 25.4235 293.346 25.107 293.045 24.875C292.746 24.643 292.374 24.527 291.926 24.527C291.495 24.527 291.131 24.638 290.832 24.8601C290.537 25.0821 290.314 25.392 290.161 25.7898C290.009 26.1875 289.933 26.6515 289.933 27.1818ZM299.975 31.1491C299.359 31.1491 298.808 30.9917 298.325 30.6768C297.844 30.3587 297.466 29.9062 297.191 29.3196C296.919 28.7296 296.783 28.022 296.783 27.1967C296.783 26.3714 296.921 25.6655 297.196 25.0788C297.474 24.4922 297.856 24.0431 298.339 23.7315C298.823 23.42 299.372 23.2642 299.985 23.2642C300.459 23.2642 300.84 23.3438 301.129 23.5028C301.42 23.6586 301.646 23.8409 301.805 24.0497C301.967 24.2585 302.093 24.4425 302.183 24.6016H302.272V20.8182H303.759V31H302.307V29.8118H302.183C302.093 29.9742 301.964 30.1598 301.795 30.3686C301.629 30.5774 301.4 30.7597 301.109 30.9155C300.817 31.0713 300.439 31.1491 299.975 31.1491ZM300.303 29.8814C300.731 29.8814 301.092 29.7687 301.387 29.5433C301.685 29.3146 301.911 28.9981 302.063 28.5938C302.219 28.1894 302.297 27.7187 302.297 27.1818C302.297 26.6515 302.221 26.1875 302.068 25.7898C301.916 25.392 301.692 25.0821 301.397 24.8601C301.102 24.638 300.737 24.527 300.303 24.527C299.856 24.527 299.483 24.643 299.185 24.875C298.886 25.107 298.661 25.4235 298.509 25.8246C298.359 26.2256 298.285 26.678 298.285 27.1818C298.285 27.6922 298.361 28.1513 298.513 28.5589C298.666 28.9666 298.891 29.2898 299.19 29.5284C299.491 29.7637 299.862 29.8814 300.303 29.8814ZM309.514 23.3636V24.5568H305.199V23.3636H309.514ZM306.382 31V22.4787C306.382 22.0014 306.487 21.6053 306.695 21.2905C306.904 20.9723 307.181 20.7353 307.526 20.5795C307.87 20.4205 308.245 20.3409 308.649 20.3409C308.948 20.3409 309.203 20.3658 309.415 20.4155C309.627 20.4619 309.785 20.505 309.887 20.5447L309.539 21.7479C309.47 21.728 309.38 21.7048 309.271 21.6783C309.161 21.6484 309.029 21.6335 308.873 21.6335C308.512 21.6335 308.253 21.723 308.097 21.902C307.945 22.081 307.869 22.3395 307.869 22.6776V31H306.382Z" fill="#101828"/>
<path d="M77.054 51V50.1051L80.4148 46.4261C80.8092 45.9953 81.134 45.6207 81.3892 45.3026C81.6444 44.9811 81.8333 44.6795 81.956 44.3977C82.0819 44.1127 82.1449 43.8144 82.1449 43.5028C82.1449 43.1449 82.0587 42.835 81.8864 42.5732C81.7173 42.3113 81.4853 42.1091 81.1903 41.9666C80.8954 41.8241 80.5639 41.7528 80.196 41.7528C79.8049 41.7528 79.4635 41.834 79.1719 41.9964C78.8835 42.1555 78.6598 42.3793 78.5007 42.6676C78.3449 42.956 78.267 43.294 78.267 43.6818H77.0938C77.0938 43.0852 77.2313 42.5616 77.5064 42.1108C77.7815 41.66 78.156 41.3087 78.63 41.0568C79.1072 40.8049 79.6425 40.679 80.2358 40.679C80.8324 40.679 81.361 40.8049 81.8217 41.0568C82.2824 41.3087 82.6437 41.6484 82.9055 42.076C83.1674 42.5036 83.2983 42.9792 83.2983 43.5028C83.2983 43.8774 83.2304 44.2436 83.0945 44.6016C82.9619 44.9562 82.7299 45.3523 82.3984 45.7898C82.0703 46.224 81.6146 46.7543 81.0312 47.3807L78.7443 49.8267V49.9062H83.4773V51H77.054ZM88.8516 51.1392C88.1025 51.1392 87.4645 50.9354 86.9375 50.5277C86.4105 50.1167 86.0078 49.5218 85.7294 48.7429C85.451 47.9607 85.3118 47.0161 85.3118 45.9091C85.3118 44.8087 85.451 43.8691 85.7294 43.0902C86.0111 42.308 86.4155 41.7114 86.9425 41.3004C87.4728 40.8861 88.1091 40.679 88.8516 40.679C89.594 40.679 90.2287 40.8861 90.7557 41.3004C91.286 41.7114 91.6903 42.308 91.9688 43.0902C92.2505 43.8691 92.3913 44.8087 92.3913 45.9091C92.3913 47.0161 92.2521 47.9607 91.9737 48.7429C91.6953 49.5218 91.2926 50.1167 90.7656 50.5277C90.2386 50.9354 89.6006 51.1392 88.8516 51.1392ZM88.8516 50.0455C89.594 50.0455 90.1707 49.6875 90.5817 48.9716C90.9927 48.2557 91.1982 47.2348 91.1982 45.9091C91.1982 45.0275 91.1037 44.2768 90.9148 43.657C90.7292 43.0372 90.4607 42.5649 90.1094 42.2401C89.7614 41.9152 89.3421 41.7528 88.8516 41.7528C88.1158 41.7528 87.5407 42.1158 87.1264 42.8416C86.7121 43.5642 86.505 44.5866 86.505 45.9091C86.505 46.7907 86.5978 47.5398 86.7834 48.1562C86.969 48.7727 87.2358 49.2417 87.5838 49.5632C87.9351 49.8847 88.3577 50.0455 88.8516 50.0455ZM97.6016 51.1392C96.8525 51.1392 96.2145 50.9354 95.6875 50.5277C95.1605 50.1167 94.7578 49.5218 94.4794 48.7429C94.201 47.9607 94.0618 47.0161 94.0618 45.9091C94.0618 44.8087 94.201 43.8691 94.4794 43.0902C94.7611 42.308 95.1655 41.7114 95.6925 41.3004C96.2228 40.8861 96.8591 40.679 97.6016 40.679C98.344 40.679 98.9787 40.8861 99.5057 41.3004C100.036 41.7114 100.44 42.308 100.719 43.0902C101 43.8691 101.141 44.8087 101.141 45.9091C101.141 47.0161 101.002 47.9607 100.724 48.7429C100.445 49.5218 100.043 50.1167 99.5156 50.5277C98.9886 50.9354 98.3506 51.1392 97.6016 51.1392ZM97.6016 50.0455C98.344 50.0455 98.9207 49.6875 99.3317 48.9716C99.7427 48.2557 99.9482 47.2348 99.9482 45.9091C99.9482 45.0275 99.8537 44.2768 99.6648 43.657C99.4792 43.0372 99.2107 42.5649 98.8594 42.2401C98.5114 41.9152 98.0921 41.7528 97.6016 41.7528C96.8658 41.7528 96.2907 42.1158 95.8764 42.8416C95.4621 43.5642 95.255 44.5866 95.255 45.9091C95.255 46.7907 95.3478 47.5398 95.5334 48.1562C95.719 48.7727 95.9858 49.2417 96.3338 49.5632C96.6851 49.8847 97.1077 50.0455 97.6016 50.0455ZM107.147 51V40.8182H108.38V45.8693H108.499L113.073 40.8182H114.684L110.408 45.4119L114.684 51H113.192L109.653 46.267L108.38 47.6989V51H107.147ZM116.28 51V40.8182H119.839C120.549 40.8182 121.134 40.9408 121.594 41.1861C122.055 41.428 122.398 41.7545 122.624 42.1655C122.849 42.5732 122.962 43.0256 122.962 43.5227C122.962 43.9602 122.884 44.3215 122.728 44.6065C122.576 44.8916 122.373 45.117 122.121 45.2827C121.873 45.4484 121.603 45.571 121.311 45.6506V45.75C121.623 45.7699 121.936 45.8793 122.251 46.0781C122.566 46.277 122.829 46.562 123.041 46.9332C123.253 47.3045 123.359 47.7585 123.359 48.2955C123.359 48.8059 123.243 49.2649 123.011 49.6726C122.779 50.0803 122.413 50.4034 121.913 50.642C121.412 50.8807 120.761 51 119.959 51H116.28ZM117.513 49.9062H119.959C120.764 49.9062 121.336 49.7505 121.674 49.4389C122.015 49.1241 122.186 48.7429 122.186 48.2955C122.186 47.9508 122.098 47.6326 121.923 47.3409C121.747 47.0459 121.497 46.8106 121.172 46.6349C120.847 46.456 120.463 46.3665 120.018 46.3665H117.513V49.9062ZM117.513 45.2926H119.8C120.171 45.2926 120.506 45.2197 120.804 45.0739C121.106 44.928 121.344 44.7225 121.52 44.4574C121.699 44.1922 121.788 43.8807 121.788 43.5227C121.788 43.0753 121.633 42.6958 121.321 42.3842C121.009 42.0694 120.516 41.9119 119.839 41.9119H117.513V45.2926Z" fill="#475467"/>
</svg>
